<svg id="Capa_1" enable-background="new 0 0 512 512" height="512" viewBox="0 0 512 512" width="512" xmlns="http://www.w3.org/2000/svg"><g><g><g><g><g><path d="m256 512c-68.38 0-132.667-26.629-181.02-74.98-48.351-48.353-74.98-112.64-74.98-181.02s26.629-132.668 74.98-181.02c48.353-48.351 112.64-74.98 181.02-74.98s132.667 26.629 181.02 74.98c48.351 48.353 74.98 112.64 74.98 181.02s-26.629 132.667-74.98 181.019c-48.352 48.352-112.64 74.981-181.02 74.981z" fill="#99d6e0"/></g></g></g></g><g><path d="m437.02 74.98c-48.352-48.351-112.64-74.98-181.02-74.98v512c68.38 0 132.667-26.629 181.02-74.98 48.351-48.353 74.98-112.64 74.98-181.02s-26.629-132.667-74.98-181.02z" fill="#82b8c2"/></g><g><g><g><g><path d="m256 440.22c-49.207 0-95.469-19.162-130.263-53.957-34.794-34.794-53.957-81.056-53.957-130.263s19.162-95.469 53.957-130.263c34.794-34.794 81.056-53.957 130.263-53.957s95.469 19.162 130.263 53.957c34.794 34.794 53.957 81.056 53.957 130.263s-19.162 95.469-53.957 130.263c-34.794 34.794-81.056 53.957-130.263 53.957z" fill="#e7ffff"/></g></g></g></g><g><path d="m386.263 125.737c-34.794-34.794-81.056-53.957-130.263-53.957v368.44c49.207 0 95.469-19.162 130.263-53.957 34.794-34.794 53.957-81.056 53.957-130.263s-19.163-95.469-53.957-130.263z" fill="#daf2fe"/></g><g><g><g><path d="m256 512-68.79-185.899-185.899-70.101 185.9-67.478 68.789-188.522 68.79 188.522 185.899 67.478-185.899 70.101z" fill="#ffb724"/></g></g><g><g><path d="m256 512v-512l68.79 188.522 185.899 67.478-185.899 70.101z" fill="#ffd17a"/></g></g><g><path d="m1.311 256 184.452 69.565 70.237-69.565z" fill="#ffd17a"/><path d="m324.804 188.503-68.804-188.503v256z" fill="#ffb724"/><path d="m187.214 188.508 68.786-188.508v256z" fill="#ffd17a"/><g fill="#ffb724"><path d="m256 256 69.204 69.947 185.485-69.947z"/><path d="m185.763 325.565 1.447.536 68.79 185.899v-256z"/></g></g></g></g></svg>